# xmcd CD database file generated by OrangeCD 6.4
#
# Track frame offsets:
#	150
#	25180
#	43957
#	63839
#	89034
#	115328
#	137036
#	158736
#	180662
#	207149
#	232865
#	263004
#	284159
#
# Disc length: 4077 seconds
#
# Revision: 0
# Processed by: cddbd v1.5.2PL0 Copyright (c) Steve Scherf et al.
# Submitted via: OrangeCD 6.4
#
DISCID=b90feb0d
DTITLE=Havana Black - Growing Wings
DYEAR=1993
DGENRE=
TTITLE0=Mean Stepmother
TTITLE1=Burn It Down
TTITLE2=Evil
TTITLE3=Sunflower
TTITLE4=Goodbye
TTITLE5=King Of The Beggars
TTITLE6=Reap What I've Sowed
TTITLE7=Thunder People
TTITLE8=Groovelands
TTITLE9=Magic
TTITLE10=East Is Red
TTITLE11=Seawind
TTITLE12=No Man's Land
EXTD=
EXTT0=
EXTT1=
EXTT2=
EXTT3=
EXTT4=
EXTT5=
EXTT6=
EXTT7=
EXTT8=
EXTT9=
EXTT10=
EXTT11=
EXTT12=
PLAYORDER=
